<svg width="232" height="84" viewBox="0 0 232 84" fill="none" xmlns="http://www.w3.org/2000/svg">
<path d="M70.976 53.464H74.432C75.296 53.464 75.728 53.032 75.728 52.168V23.656C75.728 23.208 75.616 22.888 75.392 22.696C75.2 22.472 74.88 22.36 74.432 22.36H70.976V20.824H97.76L97.952 32.824H96.752C96.752 32.184 96.608 31.096 96.32 29.56C96.064 28.024 95.536 26.648 94.736 25.432C93.392 23.384 91.504 22.36 89.072 22.36H81.44C80.992 22.36 80.656 22.472 80.432 22.696C80.24 22.888 80.144 23.208 80.144 23.656V36.568H83.84C85.472 36.568 86.64 35.704 87.344 33.976C88.08 32.216 88.448 30.376 88.448 28.456H89.696V46.216H88.448C88.448 44.296 88.08 42.472 87.344 40.744C86.64 38.984 85.472 38.104 83.84 38.104H80.144V51.88C80.144 52.36 80.24 52.744 80.432 53.032C80.656 53.32 80.992 53.464 81.44 53.464H85.664V55H70.976V53.464ZM106.773 27.16C106.07 27.16 105.478 26.92 104.998 26.44C104.518 25.96 104.278 25.368 104.278 24.664C104.278 23.928 104.518 23.336 104.998 22.888C105.478 22.408 106.07 22.168 106.773 22.168C107.51 22.168 108.102 22.408 108.55 22.888C109.03 23.336 109.27 23.928 109.27 24.664C109.27 25.368 109.03 25.96 108.55 26.44C108.102 26.92 107.51 27.16 106.773 27.16ZM102.262 53.848H104.278C104.662 53.848 104.934 53.768 105.094 53.608C105.254 53.448 105.334 53.176 105.334 52.792V35.32C105.334 34.936 105.254 34.664 105.094 34.504C104.934 34.344 104.662 34.264 104.278 34.264H102.262V33.112H108.79V52.792C108.79 53.176 108.87 53.448 109.03 53.608C109.19 53.768 109.462 53.848 109.846 53.848H111.862V55H102.262V53.848ZM123.263 55.576C121.823 55.576 120.623 55.064 119.663 54.04C118.735 53.016 118.271 51.624 118.271 49.864V34.456H114.719V33.112H115.775C117.215 33.112 118.335 32.344 119.135 30.808C119.967 29.24 120.383 27.512 120.383 25.624V23.896H121.727V33.112H127.679V34.456H121.727V50.104C121.727 51.064 121.919 51.864 122.303 52.504C122.687 53.144 123.343 53.464 124.271 53.464C126.543 53.464 127.679 51.544 127.679 47.704H128.543C128.543 49.848 128.223 51.704 127.583 53.272C126.975 54.808 125.535 55.576 123.263 55.576ZM133.132 53.464H136.588C137.452 53.464 137.884 53.032 137.884 52.168V23.656C137.884 23.208 137.772 22.888 137.548 22.696C137.356 22.472 137.036 22.36 136.588 22.36H133.132V20.824H159.916L160.108 32.824H158.908C158.908 32.184 158.764 31.096 158.476 29.56C158.22 28.024 157.692 26.648 156.892 25.432C155.548 23.384 153.66 22.36 151.228 22.36H143.596C143.148 22.36 142.812 22.472 142.588 22.696C142.396 22.888 142.3 23.208 142.3 23.656V36.568H145.996C147.628 36.568 148.796 35.704 149.5 33.976C150.236 32.216 150.604 30.376 150.604 28.456H151.852V46.216H150.604C150.604 44.296 150.236 42.472 149.5 40.744C148.796 38.984 147.628 38.104 145.996 38.104H142.3V51.88C142.3 52.36 142.396 52.744 142.588 53.032C142.812 53.32 143.148 53.464 143.596 53.464H147.82V55H133.132V53.464ZM171.029 55.576C169.269 55.576 167.653 55.064 166.181 54.04C164.709 52.984 163.541 51.576 162.677 49.816C161.845 48.056 161.429 46.136 161.429 44.056C161.429 41.976 161.845 40.056 162.677 38.296C163.541 36.536 164.709 35.144 166.181 34.12C167.653 33.064 169.269 32.536 171.029 32.536C172.789 32.536 174.405 33.064 175.877 34.12C177.349 35.144 178.501 36.536 179.333 38.296C180.197 40.056 180.629 41.976 180.629 44.056C180.629 46.136 180.197 48.056 179.333 49.816C178.501 51.576 177.349 52.984 175.877 54.04C174.405 55.064 172.789 55.576 171.029 55.576ZM171.029 54.424C172.949 54.424 174.325 53.528 175.157 51.736C175.989 49.912 176.405 47.352 176.405 44.056C176.405 40.76 175.989 38.216 175.157 36.424C174.325 34.6 172.949 33.688 171.029 33.688C169.109 33.688 167.733 34.6 166.901 36.424C166.069 38.216 165.653 40.76 165.653 44.056C165.653 47.352 166.069 49.912 166.901 51.736C167.733 53.528 169.109 54.424 171.029 54.424ZM194.842 55.576C193.082 55.576 191.466 55.064 189.993 54.04C188.522 52.984 187.354 51.576 186.49 49.816C185.658 48.056 185.242 46.136 185.242 44.056C185.242 41.976 185.658 40.056 186.49 38.296C187.354 36.536 188.522 35.144 189.993 34.12C191.466 33.064 193.082 32.536 194.842 32.536C196.602 32.536 198.218 33.064 199.69 34.12C201.162 35.144 202.314 36.536 203.146 38.296C204.01 40.056 204.442 41.976 204.442 44.056C204.442 46.136 204.01 48.056 203.146 49.816C202.314 51.576 201.162 52.984 199.69 54.04C198.218 55.064 196.602 55.576 194.842 55.576ZM194.842 54.424C196.762 54.424 198.138 53.528 198.97 51.736C199.802 49.912 200.218 47.352 200.218 44.056C200.218 40.76 199.802 38.216 198.97 36.424C198.138 34.6 196.762 33.688 194.842 33.688C192.922 33.688 191.546 34.6 190.714 36.424C189.882 38.216 189.466 40.76 189.466 44.056C189.466 47.352 189.882 49.912 190.714 51.736C191.546 53.528 192.922 54.424 194.842 54.424ZM217.502 55.576C215.998 55.576 214.59 55.08 213.278 54.088C211.998 53.064 210.974 51.672 210.206 49.912C209.438 48.152 209.054 46.2 209.054 44.056C209.054 41.912 209.438 39.96 210.206 38.2C210.974 36.44 211.998 35.064 213.278 34.072C214.59 33.048 215.998 32.536 217.502 32.536C218.75 32.536 219.87 32.952 220.862 33.784C221.854 34.584 222.59 35.56 223.07 36.712L223.262 36.664V23.032C223.262 22.648 223.182 22.376 223.022 22.216C222.862 22.056 222.59 21.976 222.206 21.976H218.75V20.824H226.718V52.792C226.718 53.176 226.798 53.448 226.958 53.608C227.118 53.768 227.39 53.848 227.774 53.848H230.27V55H223.262V51.448L223.07 51.4C222.462 52.68 221.678 53.704 220.718 54.472C219.79 55.208 218.718 55.576 217.502 55.576ZM218.03 54.232C218.99 54.232 219.87 53.88 220.67 53.176C221.47 52.472 222.094 51.512 222.542 50.296C223.022 49.048 223.262 47.704 223.262 46.264V41.848C223.262 40.408 223.022 39.08 222.542 37.864C222.094 36.616 221.47 35.64 220.67 34.936C219.87 34.232 218.99 33.88 218.03 33.88C216.462 33.88 215.278 34.76 214.478 36.52C213.678 38.28 213.278 40.792 213.278 44.056C213.278 47.32 213.678 49.832 214.478 51.592C215.278 53.352 216.462 54.232 218.03 54.232Z" fill="#FFB800"/>
<path d="M11.836 75.472H12.76C12.936 75.472 13.0607 75.4353 13.134 75.362C13.2073 75.2887 13.244 75.164 13.244 74.988V66.98C13.244 66.804 13.2073 66.6793 13.134 66.606C13.0607 66.5327 12.936 66.496 12.76 66.496H11.836V65.968H14.828V68.168L14.916 68.19C15.224 67.4273 15.62 66.826 16.104 66.386C16.6027 65.9313 17.1307 65.704 17.688 65.704C18.2453 65.704 18.7 65.8653 19.052 66.188C19.404 66.5107 19.58 66.9507 19.58 67.508C19.58 67.8307 19.4627 68.146 19.228 68.454C19.008 68.762 18.722 68.916 18.37 68.916C18.0913 68.916 17.8567 68.8427 17.666 68.696C17.4753 68.5493 17.38 68.344 17.38 68.08C17.38 67.772 17.5267 67.508 17.82 67.288C17.952 67.2 18.0473 67.1193 18.106 67.046C18.1793 66.9727 18.216 66.8773 18.216 66.76C18.216 66.628 18.15 66.5253 18.018 66.452C17.9007 66.364 17.732 66.32 17.512 66.32C17.0573 66.32 16.6173 66.54 16.192 66.98C15.7813 67.42 15.4513 67.992 15.202 68.696C14.9527 69.4 14.828 70.1333 14.828 70.896V74.988C14.828 75.164 14.8647 75.2887 14.938 75.362C15.0113 75.4353 15.136 75.472 15.312 75.472H16.236V76H11.836V75.472ZM25.6114 76.264C24.2474 76.264 23.1474 75.802 22.3114 74.878C21.4901 73.954 21.0794 72.6707 21.0794 71.028C21.0794 70.0893 21.2628 69.2167 21.6294 68.41C21.9961 67.5887 22.5021 66.936 23.1474 66.452C23.8074 65.9533 24.5408 65.704 25.3474 65.704C26.2421 65.704 26.9754 65.946 27.5474 66.43C28.1194 66.914 28.5301 67.53 28.7794 68.278C29.0434 69.0113 29.1754 69.7667 29.1754 70.544C29.1754 70.7053 29.1241 70.8153 29.0214 70.874C28.9188 70.918 28.7428 70.94 28.4934 70.94H23.0154C23.0154 72.4067 23.2208 73.5727 23.6314 74.438C24.0568 75.3033 24.7461 75.736 25.6994 75.736C26.3741 75.736 27.0048 75.4793 27.5914 74.966C28.1928 74.4527 28.5741 73.6533 28.7354 72.568H29.2634C29.1754 73.6387 28.8014 74.526 28.1414 75.23C27.4961 75.9193 26.6528 76.264 25.6114 76.264ZM27.2834 70.412C27.2834 69.2387 27.1294 68.2487 26.8214 67.442C26.5134 66.6353 26.0074 66.232 25.3034 66.232C24.5554 66.232 23.9834 66.6427 23.5874 67.464C23.2061 68.2707 23.0154 69.2533 23.0154 70.412H27.2834ZM31.4626 71.908H31.8586L32.6726 73.646C33.4646 75.0393 34.4912 75.736 35.7526 75.736C36.4272 75.736 36.9259 75.5747 37.2486 75.252C37.5859 74.9147 37.7546 74.46 37.7546 73.888C37.7546 73.5507 37.6226 73.25 37.3586 72.986C37.1092 72.7073 36.7719 72.4873 36.3466 72.326L33.8386 71.314C33.0466 70.9913 32.4232 70.6027 31.9686 70.148C31.5139 69.6933 31.2866 69.114 31.2866 68.41C31.2866 67.5153 31.5652 66.8407 32.1226 66.386C32.6799 65.9313 33.3839 65.704 34.2346 65.704C34.6599 65.704 35.0559 65.7773 35.4226 65.924C35.8039 66.056 36.1192 66.2173 36.3686 66.408C36.6912 66.6427 36.9332 66.76 37.0946 66.76C37.2852 66.76 37.4026 66.628 37.4466 66.364L37.4906 65.924H37.8866V69.268H37.4906L37.1826 68.498C36.8452 67.662 36.3979 67.0753 35.8406 66.738C35.2979 66.4007 34.7552 66.232 34.2126 66.232C33.6699 66.232 33.2226 66.3713 32.8706 66.65C32.5186 66.914 32.3426 67.288 32.3426 67.772C32.3426 68.1973 32.5112 68.5493 32.8486 68.828C33.2006 69.092 33.6772 69.3487 34.2786 69.598L36.6546 70.588C37.3586 70.8813 37.8866 71.2407 38.2386 71.666C38.5906 72.0767 38.7666 72.656 38.7666 73.404C38.7666 74.3867 38.4879 75.1127 37.9306 75.582C37.3732 76.0367 36.6399 76.264 35.7306 76.264C35.1879 76.264 34.7479 76.1907 34.4106 76.044C34.0732 75.8973 33.7432 75.6993 33.4206 75.45C33.2886 75.3473 33.1566 75.2593 33.0246 75.186C32.8926 75.1127 32.7752 75.076 32.6726 75.076C32.3206 75.076 32.0786 75.3253 31.9466 75.824L31.8586 76.264H31.4626V71.908ZM44.2136 76.264C43.5536 76.264 43.0036 76.0293 42.5636 75.56C42.1383 75.0907 41.9256 74.4527 41.9256 73.646V66.584H40.2976V65.968H40.7816C41.4416 65.968 41.955 65.616 42.3216 64.912C42.703 64.1933 42.8936 63.4013 42.8936 62.536V61.744H43.5096V65.968H46.2376V66.584H43.5096V73.756C43.5096 74.196 43.5976 74.5627 43.7736 74.856C43.9496 75.1493 44.2503 75.296 44.6756 75.296C45.717 75.296 46.2376 74.416 46.2376 72.656H46.6336C46.6336 73.6387 46.487 74.4893 46.1936 75.208C45.915 75.912 45.255 76.264 44.2136 76.264ZM51.245 76.264C50.4677 76.264 49.793 76.0733 49.221 75.692C48.6637 75.3107 48.385 74.636 48.385 73.668C48.385 72.92 48.5757 72.3333 48.957 71.908C49.3384 71.4827 49.7784 71.182 50.277 71.006C50.7904 70.8153 51.4064 70.654 52.125 70.522L54.149 70.148V68.278C54.149 66.914 53.467 66.232 52.103 66.232C51.6044 66.232 51.1497 66.364 50.739 66.628C50.3284 66.8773 50.123 67.1633 50.123 67.486C50.123 67.6327 50.145 67.7427 50.189 67.816C50.2184 67.86 50.2624 67.904 50.321 67.948C50.3944 67.992 50.4604 68.0213 50.519 68.036C50.783 68.1093 50.981 68.212 51.113 68.344C51.2597 68.476 51.333 68.6593 51.333 68.894C51.333 69.202 51.2377 69.422 51.047 69.554C50.871 69.686 50.6437 69.752 50.365 69.752C50.0424 69.752 49.749 69.6273 49.485 69.378C49.221 69.1287 49.089 68.7693 49.089 68.3C49.089 67.7573 49.2357 67.288 49.529 66.892C49.837 66.496 50.2257 66.2027 50.695 66.012C51.179 65.8067 51.6704 65.704 52.169 65.704C53.137 65.704 53.973 65.9607 54.677 66.474C55.381 66.9727 55.733 67.7573 55.733 68.828V74.24C55.733 74.9733 55.9604 75.34 56.415 75.34C56.7817 75.34 57.0457 75.1273 57.207 74.702C57.3684 74.2767 57.449 73.756 57.449 73.14H57.845C57.845 74.02 57.713 74.7607 57.449 75.362C57.1997 75.9633 56.745 76.264 56.085 76.264C55.4544 76.264 54.9777 76.0807 54.655 75.714C54.347 75.3327 54.1784 74.812 54.149 74.152L54.039 74.108C53.819 74.6213 53.4597 75.1127 52.961 75.582C52.477 76.0367 51.905 76.264 51.245 76.264ZM51.597 75.472C52.257 75.472 52.7704 75.2153 53.137 74.702C53.5184 74.174 53.8557 73.5067 54.149 72.7V70.61L52.235 71.028C51.531 71.1747 51.0177 71.468 50.695 71.908C50.387 72.3333 50.233 72.942 50.233 73.734C50.233 74.4087 50.3724 74.8707 50.651 75.12C50.9297 75.3547 51.245 75.472 51.597 75.472ZM63.3041 76.264C62.2335 76.264 61.4708 75.934 61.0161 75.274C60.5761 74.614 60.3561 73.822 60.3561 72.898V66.98C60.3561 66.804 60.3195 66.6793 60.2461 66.606C60.1728 66.5327 60.0481 66.496 59.8721 66.496H58.9481V65.968H61.9401V73.316C61.9401 73.9613 62.0648 74.5113 62.3141 74.966C62.5781 75.4207 63.0181 75.648 63.6341 75.648C64.1475 75.648 64.6021 75.472 64.9981 75.12C65.4088 74.7533 65.7241 74.262 65.9441 73.646C66.1788 73.0153 66.2961 72.3187 66.2961 71.556V66.98C66.2961 66.804 66.2595 66.6793 66.1861 66.606C66.1128 66.5327 65.9881 66.496 65.8121 66.496H64.8881V65.968H67.8801V74.988C67.8801 75.164 67.9168 75.2887 67.9901 75.362C68.0635 75.4353 68.1881 75.472 68.3641 75.472H69.2881V76H66.2961V74.196L66.2081 74.174C65.8708 74.878 65.4528 75.406 64.9541 75.758C64.4555 76.0953 63.9055 76.264 63.3041 76.264ZM70.8321 75.472H71.7561C71.9321 75.472 72.0568 75.4353 72.1301 75.362C72.2034 75.2887 72.2401 75.164 72.2401 74.988V66.98C72.2401 66.804 72.2034 66.6793 72.1301 66.606C72.0568 66.5327 71.9321 66.496 71.7561 66.496H70.8321V65.968H73.8241V68.168L73.9121 68.19C74.2201 67.4273 74.6161 66.826 75.1001 66.386C75.5988 65.9313 76.1268 65.704 76.6841 65.704C77.2414 65.704 77.6961 65.8653 78.0481 66.188C78.4001 66.5107 78.5761 66.9507 78.5761 67.508C78.5761 67.8307 78.4588 68.146 78.2241 68.454C78.0041 68.762 77.7181 68.916 77.3661 68.916C77.0874 68.916 76.8528 68.8427 76.6621 68.696C76.4714 68.5493 76.3761 68.344 76.3761 68.08C76.3761 67.772 76.5228 67.508 76.8161 67.288C76.9481 67.2 77.0434 67.1193 77.1021 67.046C77.1754 66.9727 77.2121 66.8773 77.2121 66.76C77.2121 66.628 77.1461 66.5253 77.0141 66.452C76.8968 66.364 76.7281 66.32 76.5081 66.32C76.0534 66.32 75.6134 66.54 75.1881 66.98C74.7774 67.42 74.4474 67.992 74.1981 68.696C73.9488 69.4 73.8241 70.1333 73.8241 70.896V74.988C73.8241 75.164 73.8608 75.2887 73.9341 75.362C74.0074 75.4353 74.1321 75.472 74.3081 75.472H75.2321V76H70.8321V75.472ZM82.8915 76.264C82.1142 76.264 81.4395 76.0733 80.8675 75.692C80.3102 75.3107 80.0315 74.636 80.0315 73.668C80.0315 72.92 80.2222 72.3333 80.6035 71.908C80.9849 71.4827 81.4249 71.182 81.9235 71.006C82.4369 70.8153 83.0529 70.654 83.7715 70.522L85.7955 70.148V68.278C85.7955 66.914 85.1135 66.232 83.7495 66.232C83.2509 66.232 82.7962 66.364 82.3855 66.628C81.9749 66.8773 81.7695 67.1633 81.7695 67.486C81.7695 67.6327 81.7915 67.7427 81.8355 67.816C81.8649 67.86 81.9089 67.904 81.9675 67.948C82.0409 67.992 82.1069 68.0213 82.1655 68.036C82.4295 68.1093 82.6275 68.212 82.7595 68.344C82.9062 68.476 82.9795 68.6593 82.9795 68.894C82.9795 69.202 82.8842 69.422 82.6935 69.554C82.5175 69.686 82.2902 69.752 82.0115 69.752C81.6889 69.752 81.3955 69.6273 81.1315 69.378C80.8675 69.1287 80.7355 68.7693 80.7355 68.3C80.7355 67.7573 80.8822 67.288 81.1755 66.892C81.4835 66.496 81.8722 66.2027 82.3415 66.012C82.8255 65.8067 83.3169 65.704 83.8155 65.704C84.7835 65.704 85.6195 65.9607 86.3235 66.474C87.0275 66.9727 87.3795 67.7573 87.3795 68.828V74.24C87.3795 74.9733 87.6069 75.34 88.0615 75.34C88.4282 75.34 88.6922 75.1273 88.8535 74.702C89.0149 74.2767 89.0955 73.756 89.0955 73.14H89.4915C89.4915 74.02 89.3595 74.7607 89.0955 75.362C88.8462 75.9633 88.3915 76.264 87.7315 76.264C87.1009 76.264 86.6242 76.0807 86.3015 75.714C85.9935 75.3327 85.8249 74.812 85.7955 74.152L85.6855 74.108C85.4655 74.6213 85.1062 75.1127 84.6075 75.582C84.1235 76.0367 83.5515 76.264 82.8915 76.264ZM83.2435 75.472C83.9035 75.472 84.4169 75.2153 84.7835 74.702C85.1649 74.174 85.5022 73.5067 85.7955 72.7V70.61L83.8815 71.028C83.1775 71.1747 82.6642 71.468 82.3415 71.908C82.0335 72.3333 81.8795 72.942 81.8795 73.734C81.8795 74.4087 82.0189 74.8707 82.2975 75.12C82.5762 75.3547 82.8915 75.472 83.2435 75.472ZM90.7266 75.472H91.6506C91.8266 75.472 91.9513 75.4353 92.0246 75.362C92.098 75.2887 92.1346 75.164 92.1346 74.988V66.98C92.1346 66.804 92.098 66.6793 92.0246 66.606C91.9513 66.5327 91.8266 66.496 91.6506 66.496H90.7266V65.968H93.7186V67.772L93.8066 67.794C94.144 67.09 94.562 66.5693 95.0606 66.232C95.5593 65.88 96.1093 65.704 96.7106 65.704C97.7813 65.704 98.5366 66.034 98.9766 66.694C99.4313 67.354 99.6586 68.146 99.6586 69.07V74.988C99.6586 75.164 99.6953 75.2887 99.7686 75.362C99.842 75.4353 99.9666 75.472 100.143 75.472H101.067V76H96.6666V75.472H97.5906C97.7666 75.472 97.8913 75.4353 97.9646 75.362C98.038 75.2887 98.0746 75.164 98.0746 74.988V68.652C98.0746 68.0067 97.9426 67.4567 97.6786 67.002C97.4293 66.5473 96.9966 66.32 96.3806 66.32C95.8673 66.32 95.4053 66.5033 94.9946 66.87C94.5986 67.222 94.2833 67.7133 94.0486 68.344C93.8286 68.96 93.7186 69.6493 93.7186 70.412V74.988C93.7186 75.164 93.7553 75.2887 93.8286 75.362C93.902 75.4353 94.0266 75.472 94.2026 75.472H95.1266V76H90.7266V75.472ZM106.303 76.264C105.643 76.264 105.093 76.0293 104.653 75.56C104.228 75.0907 104.015 74.4527 104.015 73.646V66.584H102.387V65.968H102.871C103.531 65.968 104.045 65.616 104.411 64.912C104.793 64.1933 104.983 63.4013 104.983 62.536V61.744H105.599V65.968H108.327V66.584H105.599V73.756C105.599 74.196 105.687 74.5627 105.863 74.856C106.039 75.1493 106.34 75.296 106.765 75.296C107.807 75.296 108.327 74.416 108.327 72.656H108.723C108.723 73.6387 108.577 74.4893 108.283 75.208C108.005 75.912 107.345 76.264 106.303 76.264ZM119.501 76.264C118.724 76.264 118.049 76.0733 117.477 75.692C116.92 75.3107 116.641 74.636 116.641 73.668C116.641 72.92 116.832 72.3333 117.213 71.908C117.594 71.4827 118.034 71.182 118.533 71.006C119.046 70.8153 119.662 70.654 120.381 70.522L122.405 70.148V68.278C122.405 66.914 121.723 66.232 120.359 66.232C119.86 66.232 119.406 66.364 118.995 66.628C118.584 66.8773 118.379 67.1633 118.379 67.486C118.379 67.6327 118.401 67.7427 118.445 67.816C118.474 67.86 118.518 67.904 118.577 67.948C118.65 67.992 118.716 68.0213 118.775 68.036C119.039 68.1093 119.237 68.212 119.369 68.344C119.516 68.476 119.589 68.6593 119.589 68.894C119.589 69.202 119.494 69.422 119.303 69.554C119.127 69.686 118.9 69.752 118.621 69.752C118.298 69.752 118.005 69.6273 117.741 69.378C117.477 69.1287 117.345 68.7693 117.345 68.3C117.345 67.7573 117.492 67.288 117.785 66.892C118.093 66.496 118.482 66.2027 118.951 66.012C119.435 65.8067 119.926 65.704 120.425 65.704C121.393 65.704 122.229 65.9607 122.933 66.474C123.637 66.9727 123.989 67.7573 123.989 68.828V74.24C123.989 74.9733 124.216 75.34 124.671 75.34C125.038 75.34 125.302 75.1273 125.463 74.702C125.624 74.2767 125.705 73.756 125.705 73.14H126.101C126.101 74.02 125.969 74.7607 125.705 75.362C125.456 75.9633 125.001 76.264 124.341 76.264C123.71 76.264 123.234 76.0807 122.911 75.714C122.603 75.3327 122.434 74.812 122.405 74.152L122.295 74.108C122.075 74.6213 121.716 75.1127 121.217 75.582C120.733 76.0367 120.161 76.264 119.501 76.264ZM119.853 75.472C120.513 75.472 121.026 75.2153 121.393 74.702C121.774 74.174 122.112 73.5067 122.405 72.7V70.61L120.491 71.028C119.787 71.1747 119.274 71.468 118.951 71.908C118.643 72.3333 118.489 72.942 118.489 73.734C118.489 74.4087 118.628 74.8707 118.907 75.12C119.186 75.3547 119.501 75.472 119.853 75.472ZM127.336 75.472H128.26C128.436 75.472 128.561 75.4353 128.634 75.362C128.707 75.2887 128.744 75.164 128.744 74.988V66.98C128.744 66.804 128.707 66.6793 128.634 66.606C128.561 66.5327 128.436 66.496 128.26 66.496H127.336V65.968H130.328V67.772L130.416 67.794C130.753 67.09 131.171 66.5693 131.67 66.232C132.169 65.88 132.719 65.704 133.32 65.704C134.391 65.704 135.146 66.034 135.586 66.694C136.041 67.354 136.268 68.146 136.268 69.07V74.988C136.268 75.164 136.305 75.2887 136.378 75.362C136.451 75.4353 136.576 75.472 136.752 75.472H137.676V76H133.276V75.472H134.2C134.376 75.472 134.501 75.4353 134.574 75.362C134.647 75.2887 134.684 75.164 134.684 74.988V68.652C134.684 68.0067 134.552 67.4567 134.288 67.002C134.039 66.5473 133.606 66.32 132.99 66.32C132.477 66.32 132.015 66.5033 131.604 66.87C131.208 67.222 130.893 67.7133 130.658 68.344C130.438 68.96 130.328 69.6493 130.328 70.412V74.988C130.328 75.164 130.365 75.2887 130.438 75.362C130.511 75.4353 130.636 75.472 130.812 75.472H131.736V76H127.336V75.472ZM143.309 76.264C142.62 76.264 141.974 76.0367 141.373 75.582C140.786 75.1127 140.317 74.4747 139.965 73.668C139.613 72.8613 139.437 71.9667 139.437 70.984C139.437 70.0013 139.613 69.1067 139.965 68.3C140.317 67.4933 140.786 66.8627 141.373 66.408C141.974 65.9387 142.62 65.704 143.309 65.704C143.881 65.704 144.394 65.8947 144.849 66.276C145.304 66.6427 145.641 67.09 145.861 67.618L145.949 67.596V61.348C145.949 61.172 145.912 61.0473 145.839 60.974C145.766 60.9007 145.641 60.864 145.465 60.864H143.881V60.336H147.533V74.988C147.533 75.164 147.57 75.2887 147.643 75.362C147.716 75.4353 147.841 75.472 148.017 75.472H149.161V76H145.949V74.372L145.861 74.35C145.582 74.9367 145.223 75.406 144.783 75.758C144.358 76.0953 143.866 76.264 143.309 76.264ZM143.551 75.648C143.991 75.648 144.394 75.4867 144.761 75.164C145.128 74.8413 145.414 74.4013 145.619 73.844C145.839 73.272 145.949 72.656 145.949 71.996V69.972C145.949 69.312 145.839 68.7033 145.619 68.146C145.414 67.574 145.128 67.1267 144.761 66.804C144.394 66.4813 143.991 66.32 143.551 66.32C142.832 66.32 142.29 66.7233 141.923 67.53C141.556 68.3367 141.373 69.488 141.373 70.984C141.373 72.48 141.556 73.6313 141.923 74.438C142.29 75.2447 142.832 75.648 143.551 75.648ZM160.969 76.264C160.28 76.264 159.634 76.0367 159.033 75.582C158.446 75.1127 157.977 74.4747 157.625 73.668C157.273 72.8613 157.097 71.9667 157.097 70.984C157.097 70.0013 157.273 69.1067 157.625 68.3C157.977 67.4933 158.446 66.8627 159.033 66.408C159.634 65.9387 160.28 65.704 160.969 65.704C161.541 65.704 162.054 65.8947 162.509 66.276C162.964 66.6427 163.301 67.09 163.521 67.618L163.609 67.596V61.348C163.609 61.172 163.572 61.0473 163.499 60.974C163.426 60.9007 163.301 60.864 163.125 60.864H161.541V60.336H165.193V74.988C165.193 75.164 165.23 75.2887 165.303 75.362C165.376 75.4353 165.501 75.472 165.677 75.472H166.821V76H163.609V74.372L163.521 74.35C163.242 74.9367 162.883 75.406 162.443 75.758C162.018 76.0953 161.526 76.264 160.969 76.264ZM161.211 75.648C161.651 75.648 162.054 75.4867 162.421 75.164C162.788 74.8413 163.074 74.4013 163.279 73.844C163.499 73.272 163.609 72.656 163.609 71.996V69.972C163.609 69.312 163.499 68.7033 163.279 68.146C163.074 67.574 162.788 67.1267 162.421 66.804C162.054 66.4813 161.651 66.32 161.211 66.32C160.492 66.32 159.95 66.7233 159.583 67.53C159.216 68.3367 159.033 69.488 159.033 70.984C159.033 72.48 159.216 73.6313 159.583 74.438C159.95 75.2447 160.492 75.648 161.211 75.648ZM173.123 76.264C171.759 76.264 170.659 75.802 169.823 74.878C169.002 73.954 168.591 72.6707 168.591 71.028C168.591 70.0893 168.774 69.2167 169.141 68.41C169.508 67.5887 170.014 66.936 170.659 66.452C171.319 65.9533 172.052 65.704 172.859 65.704C173.754 65.704 174.487 65.946 175.059 66.43C175.631 66.914 176.042 67.53 176.291 68.278C176.555 69.0113 176.687 69.7667 176.687 70.544C176.687 70.7053 176.636 70.8153 176.533 70.874C176.43 70.918 176.254 70.94 176.005 70.94H170.527C170.527 72.4067 170.732 73.5727 171.143 74.438C171.568 75.3033 172.258 75.736 173.211 75.736C173.886 75.736 174.516 75.4793 175.103 74.966C175.704 74.4527 176.086 73.6533 176.247 72.568H176.775C176.687 73.6387 176.313 74.526 175.653 75.23C175.008 75.9193 174.164 76.264 173.123 76.264ZM174.795 70.412C174.795 69.2387 174.641 68.2487 174.333 67.442C174.025 66.6353 173.519 66.232 172.815 66.232C172.067 66.232 171.495 66.6427 171.099 67.464C170.718 68.2707 170.527 69.2533 170.527 70.412H174.795ZM178.27 75.472H179.414C179.59 75.472 179.715 75.4353 179.788 75.362C179.862 75.2887 179.898 75.164 179.898 74.988V61.348C179.898 61.172 179.862 61.0473 179.788 60.974C179.715 60.9007 179.59 60.864 179.414 60.864H178.27V60.336H181.482V74.988C181.482 75.164 181.519 75.2887 181.592 75.362C181.666 75.4353 181.79 75.472 181.966 75.472H183.11V76H178.27V75.472ZM186.488 63.24C186.165 63.24 185.894 63.13 185.674 62.91C185.454 62.69 185.344 62.4187 185.344 62.096C185.344 61.7587 185.454 61.4873 185.674 61.282C185.894 61.062 186.165 60.952 186.488 60.952C186.825 60.952 187.097 61.062 187.302 61.282C187.522 61.4873 187.632 61.7587 187.632 62.096C187.632 62.4187 187.522 62.69 187.302 62.91C187.097 63.13 186.825 63.24 186.488 63.24ZM184.42 75.472H185.344C185.52 75.472 185.645 75.4353 185.718 75.362C185.791 75.2887 185.828 75.164 185.828 74.988V66.98C185.828 66.804 185.791 66.6793 185.718 66.606C185.645 66.5327 185.52 66.496 185.344 66.496H184.42V65.968H187.412V74.988C187.412 75.164 187.449 75.2887 187.522 75.362C187.595 75.4353 187.72 75.472 187.896 75.472H188.82V76H184.42V75.472ZM191.692 67.596C191.545 67.2147 191.391 66.936 191.23 66.76C191.083 66.584 190.856 66.496 190.548 66.496H189.91V65.968H194.662V66.496H194.046C193.87 66.496 193.708 66.5473 193.562 66.65C193.415 66.738 193.342 66.8627 193.342 67.024C193.342 67.2733 193.386 67.5153 193.474 67.75L195.938 73.69L197.72 68.476C197.778 68.3 197.83 68.102 197.874 67.882C197.932 67.662 197.962 67.486 197.962 67.354C197.962 67.1047 197.888 66.8993 197.742 66.738C197.595 66.5767 197.404 66.496 197.17 66.496H196.642V65.968H200.646V66.496H200.14C199.817 66.496 199.516 66.606 199.238 66.826C198.974 67.0313 198.768 67.354 198.622 67.794L195.718 76.264H195.322L191.692 67.596ZM205.715 76.264C204.351 76.264 203.251 75.802 202.415 74.878C201.594 73.954 201.183 72.6707 201.183 71.028C201.183 70.0893 201.366 69.2167 201.733 68.41C202.1 67.5887 202.606 66.936 203.251 66.452C203.911 65.9533 204.644 65.704 205.451 65.704C206.346 65.704 207.079 65.946 207.651 66.43C208.223 66.914 208.634 67.53 208.883 68.278C209.147 69.0113 209.279 69.7667 209.279 70.544C209.279 70.7053 209.228 70.8153 209.125 70.874C209.022 70.918 208.846 70.94 208.597 70.94H203.119C203.119 72.4067 203.324 73.5727 203.735 74.438C204.16 75.3033 204.85 75.736 205.803 75.736C206.478 75.736 207.108 75.4793 207.695 74.966C208.296 74.4527 208.678 73.6533 208.839 72.568H209.367C209.279 73.6387 208.905 74.526 208.245 75.23C207.6 75.9193 206.756 76.264 205.715 76.264ZM207.387 70.412C207.387 69.2387 207.233 68.2487 206.925 67.442C206.617 66.6353 206.111 66.232 205.407 66.232C204.659 66.232 204.087 66.6427 203.691 67.464C203.31 68.2707 203.119 69.2533 203.119 70.412H207.387ZM211.082 75.472H212.006C212.182 75.472 212.307 75.4353 212.38 75.362C212.453 75.2887 212.49 75.164 212.49 74.988V66.98C212.49 66.804 212.453 66.6793 212.38 66.606C212.307 66.5327 212.182 66.496 212.006 66.496H211.082V65.968H214.074V68.168L214.162 68.19C214.47 67.4273 214.866 66.826 215.35 66.386C215.849 65.9313 216.377 65.704 216.934 65.704C217.491 65.704 217.946 65.8653 218.298 66.188C218.65 66.5107 218.826 66.9507 218.826 67.508C218.826 67.8307 218.709 68.146 218.474 68.454C218.254 68.762 217.968 68.916 217.616 68.916C217.337 68.916 217.103 68.8427 216.912 68.696C216.721 68.5493 216.626 68.344 216.626 68.08C216.626 67.772 216.773 67.508 217.066 67.288C217.198 67.2 217.293 67.1193 217.352 67.046C217.425 66.9727 217.462 66.8773 217.462 66.76C217.462 66.628 217.396 66.5253 217.264 66.452C217.147 66.364 216.978 66.32 216.758 66.32C216.303 66.32 215.863 66.54 215.438 66.98C215.027 67.42 214.697 67.992 214.448 68.696C214.199 69.4 214.074 70.1333 214.074 70.896V74.988C214.074 75.164 214.111 75.2887 214.184 75.362C214.257 75.4353 214.382 75.472 214.558 75.472H215.482V76H211.082V75.472ZM222.218 81.236C221.646 81.236 221.176 81.0527 220.81 80.686C220.619 80.51 220.465 80.2973 220.348 80.048C220.245 79.8133 220.194 79.564 220.194 79.3C220.194 79.1093 220.223 78.926 220.282 78.75C220.355 78.5887 220.443 78.464 220.546 78.376C220.766 78.156 221.015 78.046 221.294 78.046C221.631 78.046 221.88 78.1487 222.042 78.354C222.218 78.574 222.306 78.8453 222.306 79.168C222.306 79.344 222.247 79.5493 222.13 79.784C222.042 79.9307 221.998 80.07 221.998 80.202C221.998 80.422 222.144 80.532 222.438 80.532C222.878 80.532 223.244 80.356 223.538 80.004C223.846 79.6667 224.073 79.2633 224.22 78.794L224.814 76.88L221.69 67.794C221.514 67.3247 221.345 66.9947 221.184 66.804C221.022 66.5987 220.758 66.496 220.392 66.496H219.666V65.968H224.638V66.496H223.934C223.758 66.496 223.596 66.5473 223.45 66.65C223.303 66.738 223.23 66.8627 223.23 67.024C223.23 67.2733 223.274 67.5153 223.362 67.75L225.65 74.504L227.476 68.476C227.534 68.3 227.586 68.102 227.63 67.882C227.688 67.662 227.718 67.486 227.718 67.354C227.718 67.1047 227.644 66.8993 227.498 66.738C227.351 66.5767 227.16 66.496 226.926 66.496H226.398V65.968H230.402V66.496H229.896C229.573 66.496 229.272 66.606 228.994 66.826C228.73 67.0313 228.524 67.354 228.378 67.794L224.836 79.058C224.674 79.6007 224.366 80.0993 223.912 80.554C223.457 81.0087 222.892 81.236 222.218 81.236Z" fill="#9B9B9B"/>
<path d="M47.5001 45H12.5001M30.0001 45V30M37.5001 45V35M22.5001 45V35M47.5001 55V28.325C48.4284 27.9867 49.2807 27.4684 50.0082 26.7998C50.7356 26.1311 51.3238 25.3254 51.739 24.4289C52.1543 23.5323 52.3883 22.5626 52.4277 21.5753C52.4671 20.5881 52.3112 19.6028 51.9688 18.676C51.6264 17.7492 51.1043 16.8991 50.4324 16.1747C49.7606 15.4502 48.9523 14.8655 48.0539 14.4543C47.1556 14.043 46.1848 13.8133 45.1974 13.7782C44.21 13.7432 43.2254 13.9035 42.3001 14.25C41.3751 9.685 36.1501 5 30.0001 5C23.8501 5 18.6251 9.685 17.7001 14.25C15.8336 13.5604 13.7697 13.6406 11.9623 14.4728C10.1549 15.305 8.75215 16.821 8.06258 18.6875C7.37302 20.554 7.45315 22.6179 8.28534 24.4253C9.11754 26.2327 10.6336 27.6354 12.5001 28.325V55H47.5001Z" stroke="#054F48" stroke-width="2"/>
</svg>
